#!OML:ASF H:\Dans Jumps\Project 1\Capture day 1\Session 1\subject.ASF
:FULLY-SPECIFIED
:DEGREES
458
root 0.457475 17.7234 -1.70009 7.39973 0.935147 -0.846368
lowerback -1.02627 -0.362125 -0.557585
upperback 4.41461 -0.537458 1.68095
thorax 5.15794 -0.329532 2.02347
lowerneck -12.157 0.140155 -2.00085
upperneck 35.2005 0.519004 0.681324
head 14.0094 0.0536797 0.709251
rclavicle 3.77691e-015 -1.19271e-015
rhumerus -19.7603 -21.6536 -81.7684
rradius 21.1053
rwrist 37.7952
rhand -19.8897 -26.27
rfingers 7.12502
rthumb 6.44626 -56.1519
lclavicle 3.77691e-015 -1.19271e-015
lhumerus -17.3975 -2.81102 90.6771
lradius 17.9904
lwrist 3.05287
lhand -26.0673 -5.23459
lfingers 7.12502
lthumb 0.480754 24.7446
rfemur -15.4646 -2.80682 19.0356
rtibia 24.3605
rfoot -14.1647 -2.18418
rtoes 11.3011
lfemur -14.5583 6.72308 -18.1684
ltibia 20.0667
lfoot -10.2612 4.82814
ltoes 3.29896
459
root 0.456484 17.7236 -1.69829 7.39729 0.922275 -0.845771
lowerback -1.0306 -0.360765 -0.551331
upperback 4.40798 -0.53582 1.68096
thorax 5.15331 -0.328388 2.02002
lowerneck -12.1394 0.135502 -2.01633
upperneck 35.1965 0.512795 0.689855
head 14.0037 0.0501083 0.714381
rclavicle -4.67144e-015 1.86858e-014
rhumerus -19.7444 -21.6534 -81.7474
rradius 21.1072
rwrist 37.8005
rhand -19.8678 -26.2796
rfingers 7.12502
rthumb 6.46745 -56.1608
lclavicle -4.67144e-015 1.86858e-014
lhumerus -17.375 -2.85636 90.6762
lradius 18.0179
lwrist 3.1123
lhand -26.1021 -5.28866
lfingers 7.12502
lthumb 0.447106 24.6906
rfemur -15.4522 -2.7983 19.0372
rtibia 24.3513
rfoot -14.1682 -2.17662
rtoes 11.3318
lfemur -14.5405 6.72478 -18.165
ltibia 20.0547
lfoot -10.26 4.84173
ltoes 3.29247
460
root 0.455583 17.7237 -1.69646 7.39513 0.909082 -0.844669
lowerback -1.03502 -0.358862 -0.542842
upperback 4.40112 -0.533487 1.6798
thorax 5.14843 -0.326775 2.01415
lowerneck -12.1285 0.131674 -2.02855
upperneck 35.1985 0.508413 0.694787
head 14.0022 0.0472292 0.717835
rclavicle -2.5842e-015 0
rhumerus -19.7266 -21.6616 -81.7267
rradius 21.1085
rwrist 37.811
rhand -19.8512 -26.2903
rfingers 7.12502
rthumb 6.48347 -56.1711
lclavicle -2.5842e-015 0
lhumerus -17.3519 -2.88442 90.671
lradius 18.0369
lwrist 3.15309
lhand -26.1413 -5.35885
lfingers 7.12502
lthumb 0.409318 24.6205
rfemur -15.4407 -2.79183 19.038
rtibia 24.3435
rfoot -14.1712 -2.16794
rtoes 11.3544
lfemur -14.5237 6.72331 -18.1621
ltibia 20.0453
lfoot -10.2597 4.85822
ltoes 3.28727
461
root 0.454702 17.7238 -1.69464 7.3946 0.895918 -0.844075
lowerback -1.0395 -0.357685 -0.533565
upperback 4.39301 -0.532169 1.67933
thorax 5.14231 -0.325635 2.00849
lowerneck -12.1219 0.128986 -2.03991
upperneck 35.2044 0.506566 0.696971
head 14.0034 0.0451498 0.72046
rclavicle 3.47873e-015 -7.95139e-016
rhumerus -19.705 -21.6778 -81.7047
rradius 21.104
rwrist 37.8275
rhand -19.8522 -26.289
rfingers 7.12502
rthumb 6.48253 -56.1698
lclavicle 3.47873e-015 -7.95139e-016
lhumerus -17.3271 -2.89161 90.6624
lradius 18.0438
lwrist 3.17059
lhand -26.1731 -5.41374
lfingers 7.12502
lthumb 0.378564 24.5657
rfemur -15.4326 -2.78445 19.0395
rtibia 24.3383
rfoot -14.174 -2.1616
rtoes 11.3715
lfemur -14.5102 6.72174 -18.159
ltibia 20.0384
lfoot -10.2589 4.87436
ltoes 3.28294
462
root 0.45384 17.7239 -1.69284 7.395 0.883308 -0.841829
lowerback -1.04335 -0.356874 -0.525279
upperback 4.38396 -0.531274 1.6785
thorax 5.13487 -0.324725 2.00297
lowerneck -12.1212 0.12818 -2.04864
upperneck 35.2155 0.508056 0.696099
head 14.0082 0.0444033 0.721961
rclavicle 1.78906e-015 -9.93923e-015
rhumerus -19.6817 -21.6976 -81.6823
rradius 21.0974
rwrist 37.8473
rhand -19.8631 -26.279
rfingers 7.12502
rthumb 6.472 -56.1601
lclavicle 1.78906e-015 -9.93923e-015
lhumerus -17.3002 -2.8842 90.6509
lradius 18.0402
lwrist 3.17504
lhand -26.1991 -5.45927
lfingers 7.12502
lthumb 0.353494 24.5202
rfemur -15.4269 -2.7784 19.0394
rtibia 24.3356
rfoot -14.176 -2.15799
rtoes 11.3646
lfemur -14.4987 6.71796 -18.1576
ltibia 20.0332
lfoot -10.259 4.89136
ltoes 3.28196
463
root 0.452978 17.7239 -1.69104 7.39556 0.872018 -0.839222
lowerback -1.04741 -0.357966 -0.518016
upperback 4.37507 -0.532933 1.67866
thorax 5.12784 -0.325154 1.99894
lowerneck -12.1255 0.13007 -2.05549
upperneck 35.2286 0.514907 0.690244
head 14.0151 0.0455224 0.721962
rclavicle 2.48481e-015 3.97569e-016
rhumerus -19.6545 -21.7184 -81.6598
rradius 21.0871
rwrist 37.8705
rhand -19.8817 -26.2537
rfingers 7.12502
rthumb 6.454 -56.1354
lclavicle 2.48481e-015 3.97569e-016
lhumerus -17.2732 -2.86074 90.6371
lradius 18.0296
lwrist 3.1676
lhand -26.2034 -5.44954
lfingers 7.12502
lthumb 0.349287 24.5299
rfemur -15.4226 -2.77216 19.0392
rtibia 24.3354
rfoot -14.1794 -2.15762
rtoes 11.3506
lfemur -14.4887 6.71312 -18.1565
ltibia 20.0293
lfoot -10.26 4.90748
ltoes 3.28558
464
root 0.452169 17.7238 -1.6891 7.3951 0.863178 -0.836215
lowerback -1.05342 -0.36051 -0.510176
upperback 4.36745 -0.536578 1.67891
thorax 5.12333 -0.326572 1.99455
lowerneck -12.1337 0.133858 -2.05826
upperneck 35.2432 0.524783 0.680873
head 14.0234 0.047996 0.720306
rclavicle -2.88238e-015 -9.54166e-015
rhumerus -19.6237 -21.7383 -81.6378
rradius 21.0752
rwrist 37.894
rhand -19.8985 -26.2241
rfingers 7.12502
rthumb 6.43776 -56.1062
lclavicle -2.88238e-015 -9.54166e-015
lhumerus -17.2474 -2.82808 90.6215
lradius 18.0173
lwrist 3.15249
lhand -26.1936 -5.40357
lfingers 7.12502
lthumb 0.358798 24.5759
rfemur -15.4172 -2.76904 19.0385
rtibia 24.3369
rfoot -14.1849 -2.1574
rtoes 11.332
lfemur -14.4777 6.70983 -18.1561
ltibia 20.0263
lfoot -10.2628 4.92039
ltoes 3.28799
465
root 0.451354 17.7237 -1.68721 7.39343 0.858009 -0.834624
lowerback -1.058 -0.364934 -0.50104
upperback 4.36031 -0.542832 1.68022
thorax 5.11862 -0.32926 1.99039
lowerneck -12.1453 0.13961 -2.05896
upperneck 35.2572 0.537675 0.669802
head 14.0323 0.0518096 0.718061
rclavicle 3.97569e-015 4.37326e-015
rhumerus -19.5921 -21.7451 -81.6178
rradius 21.0646
rwrist 37.9076
rhand -19.9157 -26.1898
rfingers 7.12502
rthumb 6.42116 -56.0724
lclavicle 3.97569e-015 4.37326e-015
lhumerus -17.2239 -2.79292 90.6047
lradius 18.0046
lwrist 3.13762
lhand -26.1792 -5.34815
lfingers 7.12502
lthumb 0.372636 24.6313
rfemur -15.4104 -2.76768 19.0397
rtibia 24.3393
rfoot -14.1907 -2.15912
rtoes 11.3023
lfemur -14.4666 6.70617 -18.154
ltibia 20.0238
lfoot -10.266 4.93102
ltoes 3.28655
466
root 0.450536 17.7235 -1.68525 7.38964 0.855846 -0.834358
lowerback -1.06324 -0.370452 -0.489804
upperback 4.3546 -0.550661 1.6819
thorax 5.11582 -0.332672 1.98536
lowerneck -12.1564 0.146071 -2.05728
upperneck 35.2678 0.551307 0.657636
head 14.0395 0.0561372 0.715036
rclavicle -3.47873e-015 6.75868e-015
rhumerus -19.562 -21.7299 -81.6023
rradius 21.0622
rwrist 37.8997
rhand -19.9291 -26.1635
rfingers 7.12502
rthumb 6.40822 -56.0466
lclavicle -3.47873e-015 6.75868e-015
lhumerus -17.2058 -2.76355 90.5881
lradius 17.9952
lwrist 3.12915
lhand -26.1639 -5.29437
lfingers 7.12502
lthumb 0.387415 24.685
rfemur -15.4005 -2.76788 19.0423
rtibia 24.3419
rfoot -14.1987 -2.16043
rtoes 11.2816
lfemur -14.4534 6.70124 -18.15
ltibia 20.0218
lfoot -10.2688 4.93978
ltoes 3.28685
467
root 0.449654 17.7233 -1.68335 7.38409 0.855836 -0.833452
lowerback -1.0665 -0.376613 -0.479985
upperback 4.34984 -0.559315 1.68392
thorax 5.11294 -0.336567 1.98143
lowerneck -12.1687 0.152295 -2.05169
upperneck 35.2752 0.564514 0.642646
head 14.0455 0.0604482 0.710092
rclavicle -3.27995e-015 9.93923e-015
rhumerus -19.5318 -21.6941 -81.5912
rradius 21.0652
rwrist 37.8686
rhand -19.9419 -26.149
rfingers 7.12502
rthumb 6.39586 -56.0324
lclavicle -3.27995e-015 9.93923e-015
lhumerus -17.1919 -2.73539 90.572
lradius 17.9895
lwrist 3.11816
lhand -26.1547 -5.24682
lfingers 7.12502
lthumb 0.396285 24.7326
rfemur -15.3893 -2.76784 19.0444
rtibia 24.3458
rfoot -14.2071 -2.16275
rtoes 11.2678
lfemur -14.4383 6.69644 -18.1463
ltibia 20.0184
lfoot -10.2703 4.94587
ltoes 3.28297
468
root 0.448768 17.723 -1.68144 7.37649 0.857491 -0.8312
lowerback -1.0698 -0.382485 -0.470842
upperback 4.34699 -0.567547 1.6852
thorax 5.11206 -0.340286 1.97716
lowerneck -12.1833 0.158068 -2.04296
upperneck 35.2812 0.576799 0.626126
head 14.0514 0.064593 0.703835
rclavicle 4.96962e-016 -3.18055e-015
rhumerus -19.5051 -21.6374 -81.585
rradius 21.0805
rwrist 37.8121
rhand -19.9537 -26.1508
rfingers 7.12502
rthumb 6.38454 -56.0345
lclavicle 4.96962e-016 -3.18055e-015
lhumerus -17.1821 -2.71311 90.5568
lradius 17.9877
lwrist 3.10883
lhand -26.1541 -5.22768
lfingers 7.12502
lthumb 0.396939 24.7517
rfemur -15.3759 -2.76978 19.0448
rtibia 24.3509
rfoot -14.2162 -2.16376
rtoes 11.2611
lfemur -14.4197 6.69058 -18.1437
ltibia 20.0132
lfoot -10.2709 4.95058
ltoes 3.28238
